<svg width="16" height="16" viewBox="0 0 16 16" fill="none" xmlns="http://www.w3.org/2000/svg">
<g opacity="0.5">
<path d="M8.13293 7.86666L7.19291 8.80666C6.67291 9.32666 6.67291 10.1733 7.19291 10.6933C7.71291 11.2133 8.55959 11.2133 9.07959 10.6933L10.5596 9.21334C11.5996 8.17334 11.5996 6.48667 10.5596 5.44C9.51961 4.4 7.83292 4.4 6.78625 5.44L5.17293 7.05333C4.2796 7.94666 4.2796 9.39333 5.17293 10.2867" stroke="#C0C0C0" stroke-width="1.5" stroke-linecap="round" stroke-linejoin="round"/>
<path d="M5.99967 14.6667H9.99967C13.333 14.6667 14.6663 13.3333 14.6663 10V6.00001C14.6663 2.66668 13.333 1.33334 9.99967 1.33334H5.99967C2.66634 1.33334 1.33301 2.66668 1.33301 6.00001V10C1.33301 13.3333 2.66634 14.6667 5.99967 14.6667Z" stroke="#C0C0C0" stroke-width="1.5" stroke-linecap="round" stroke-linejoin="round"/>
</g>
</svg>
