<svg width="14" height="14" viewBox="0 0 14 14" fill="none" xmlns="http://www.w3.org/2000/svg">
<path d="M9.33366 7.52499V9.97499C9.33366 12.0167 8.51699 12.8333 6.47533 12.8333H4.02533C1.98366 12.8333 1.16699 12.0167 1.16699 9.97499V7.52499C1.16699 5.48332 1.98366 4.66666 4.02533 4.66666H6.47533C8.51699 4.66666 9.33366 5.48332 9.33366 7.52499Z" stroke="#C0C0C0" stroke-width="1.5" stroke-linecap="round" stroke-linejoin="round"/>
<path d="M12.8337 4.02499V6.47499C12.8337 8.51666 12.017 9.33332 9.97533 9.33332H9.33366V7.52499C9.33366 5.48332 8.51699 4.66666 6.47533 4.66666H4.66699V4.02499C4.66699 1.98332 5.48366 1.16666 7.52533 1.16666H9.97533C12.017 1.16666 12.8337 1.98332 12.8337 4.02499Z" stroke="#C0C0C0" stroke-width="1.5" stroke-linecap="round" stroke-linejoin="round"/>
</svg>
