<svg width="188" height="56" viewBox="0 0 188 56" fill="none" xmlns="http://www.w3.org/2000/svg">
<path d="M21.1278 25.5443C21.1278 24.9368 21.6203 24.4443 22.2278 24.4443C22.8353 24.4443 23.3278 24.9368 23.3278 25.5443V29.4554C23.3278 30.063 22.8353 30.5554 22.2278 30.5554C21.6203 30.5554 21.1278 30.063 21.1278 29.4554V25.5443Z" fill="#B6F497"/>
<path d="M45.9388 25.5443C45.9388 24.9368 46.4313 24.4443 47.0388 24.4443C47.6464 24.4443 48.1388 24.9368 48.1388 25.5443V29.4554C48.1388 30.063 47.6464 30.5554 47.0388 30.5554C46.4313 30.5554 45.9388 30.063 45.9388 29.4554V25.5443Z" fill="#D79D5D"/>
<path d="M24.6721 23.1C24.6721 22.4925 25.1646 22 25.7721 22C26.3796 22 26.8721 22.4925 26.8721 23.1V30.6778C26.8721 31.2853 26.3796 31.7778 25.7721 31.7778C25.1646 31.7778 24.6721 31.2853 24.6721 30.6778V23.1Z" fill="#B6F497"/>
<path d="M49.4834 24.3222C49.4834 23.7147 49.9759 23.2222 50.5834 23.2222C51.1909 23.2222 51.6834 23.7147 51.6834 24.3222V30.6777C51.6834 31.2852 51.1909 31.7777 50.5834 31.7777C49.9759 31.7777 49.4834 31.2852 49.4834 30.6777V24.3222Z" fill="#D79D5D"/>
<path d="M28.2167 25.5443C28.2167 24.9368 28.7092 24.4443 29.3167 24.4443C29.9242 24.4443 30.4167 24.9368 30.4167 25.5443V28.2332C30.4167 28.8407 29.9242 29.3332 29.3167 29.3332C28.7092 29.3332 28.2167 28.8407 28.2167 28.2332V25.5443Z" fill="#B6F497"/>
<path d="M53.0278 25.5443C53.0278 24.9368 53.5203 24.4443 54.1278 24.4443C54.7353 24.4443 55.2278 24.9368 55.2278 25.5443V28.2332C55.2278 28.8407 54.7353 29.3332 54.1278 29.3332C53.5203 29.3332 53.0278 28.8407 53.0278 28.2332V25.5443Z" fill="#D79D5D"/>
<path d="M31.7611 23.1C31.7611 22.4925 32.2536 22 32.8611 22C33.4686 22 33.9611 22.4925 33.9611 23.1V31.9C33.9611 32.5075 33.4686 33 32.8611 33C32.2536 33 31.7611 32.5075 31.7611 31.9V23.1Z" fill="#B6F497"/>
<path d="M56.5721 23.1C56.5721 22.4925 57.0646 22 57.6721 22C58.2797 22 58.7721 22.4925 58.7721 23.1V31.9C58.7721 32.5075 58.2797 33 57.6721 33C57.0646 33 56.5721 32.5075 56.5721 31.9V23.1Z" fill="#D79D5D"/>
<path d="M35.3055 23.1C35.3055 22.4925 35.798 22 36.4055 22C37.0131 22 37.5055 22.4925 37.5055 23.1V29.4556C37.5055 30.0631 37.0131 30.5556 36.4055 30.5556C35.798 30.5556 35.3055 30.0631 35.3055 29.4556V23.1Z" fill="#B6F497"/>
<path d="M60.1167 23.1C60.1167 22.4925 60.6092 22 61.2167 22C61.8242 22 62.3167 22.4925 62.3167 23.1V29.4556C62.3167 30.0631 61.8242 30.5556 61.2167 30.5556C60.6092 30.5556 60.1167 30.0631 60.1167 29.4556V23.1Z" fill="#D79D5D"/>
<path d="M38.85 25.5443C38.85 24.9368 39.3425 24.4443 39.95 24.4443C40.5575 24.4443 41.05 24.9368 41.05 25.5443V29.4554C41.05 30.063 40.5575 30.5554 39.95 30.5554C39.3425 30.5554 38.85 30.063 38.85 29.4554V25.5443Z" fill="#B6F497"/>
<path d="M42.3945 23.1C42.3945 22.4925 42.887 22 43.4945 22C44.102 22 44.5945 22.4925 44.5945 23.1V30.6778C44.5945 31.2853 44.102 31.7778 43.4945 31.7778C42.887 31.7778 42.3945 31.2853 42.3945 30.6778V23.1Z" fill="#D79D5D"/>
<path d="M73 26.5443C73 25.9368 73.4925 25.4443 74.1 25.4443C74.7075 25.4443 75.2 25.9368 75.2 26.5443V28.4554C75.2 29.063 74.7075 29.5554 74.1 29.5554C73.4925 29.5554 73 29.063 73 28.4554V26.5443Z" fill="#B6F497"/>
<path d="M97.811 22.5443C97.811 21.9368 98.3035 21.4443 98.911 21.4443C99.5185 21.4443 100.011 21.9368 100.011 22.5443V32.4554C100.011 33.063 99.5185 33.5554 98.911 33.5554C98.3035 33.5554 97.811 33.063 97.811 32.4554V22.5443Z" fill="#D79D5D"/>
<path d="M76.5443 21.1C76.5443 20.4925 77.0368 20 77.6443 20C78.2518 20 78.7443 20.4925 78.7443 21.1V33.6778C78.7443 34.2853 78.2518 34.7778 77.6443 34.7778C77.0368 34.7778 76.5443 34.2853 76.5443 33.6778V21.1Z" fill="#B6F497"/>
<path d="M101.356 21.3222C101.356 20.7147 101.848 20.2222 102.456 20.2222C103.063 20.2222 103.556 20.7147 103.556 21.3222V32.6777C103.556 33.2852 103.063 33.7777 102.456 33.7777C101.848 33.7777 101.356 33.2852 101.356 32.6777V21.3222Z" fill="#D79D5D"/>
<path d="M80.0889 23.5443C80.0889 22.9368 80.5814 22.4443 81.1889 22.4443C81.7964 22.4443 82.2889 22.9368 82.2889 23.5443V31.2332C82.2889 31.8407 81.7964 32.3332 81.1889 32.3332C80.5814 32.3332 80.0889 31.8407 80.0889 31.2332V23.5443Z" fill="#B6F497"/>
<path d="M104.9 24.5443C104.9 23.9368 105.393 23.4443 106 23.4443C106.608 23.4443 107.1 23.9368 107.1 24.5443V30.2332C107.1 30.8407 106.608 31.3332 106 31.3332C105.393 31.3332 104.9 30.8407 104.9 30.2332V24.5443Z" fill="#D79D5D"/>
<path d="M83.6333 26.1C83.6333 25.4925 84.1258 25 84.7333 25C85.3408 25 85.8333 25.4925 85.8333 26.1V28.9C85.8333 29.5075 85.3408 30 84.7333 30C84.1258 30 83.6333 29.5075 83.6333 28.9V26.1Z" fill="#B6F497"/>
<path d="M108.444 27.1C108.444 26.4925 108.937 26 109.544 26C110.152 26 110.644 26.4925 110.644 27.1V27.9C110.644 28.5075 110.152 29 109.544 29C108.937 29 108.444 28.5075 108.444 27.9V27.1Z" fill="#D79D5D"/>
<path d="M87.1777 21.1C87.1777 20.4925 87.6702 20 88.2777 20C88.8852 20 89.3777 20.4925 89.3777 21.1V32.4556C89.3777 33.0631 88.8852 33.5556 88.2777 33.5556C87.6702 33.5556 87.1777 33.0631 87.1777 32.4556V21.1Z" fill="#B6F497"/>
<path d="M111.989 22.1C111.989 21.4925 112.481 21 113.089 21C113.696 21 114.189 21.4925 114.189 22.1V31.4556C114.189 32.0631 113.696 32.5556 113.089 32.5556C112.481 32.5556 111.989 32.0631 111.989 31.4556V22.1Z" fill="#D79D5D"/>
<path d="M90.7222 26.5443C90.7222 25.9368 91.2147 25.4443 91.8222 25.4443C92.4297 25.4443 92.9222 25.9368 92.9222 26.5443V28.4554C92.9222 29.063 92.4297 29.5554 91.8222 29.5554C91.2147 29.5554 90.7222 29.063 90.7222 28.4554V26.5443Z" fill="#B6F497"/>
<path d="M94.2667 25.1C94.2667 24.4925 94.7592 24 95.3667 24C95.9742 24 96.4667 24.4925 96.4667 25.1V28.6778C96.4667 29.2853 95.9742 29.7778 95.3667 29.7778C94.7592 29.7778 94.2667 29.2853 94.2667 28.6778V25.1Z" fill="#D79D5D"/>
<path d="M125 25.5443C125 24.9368 125.492 24.4443 126.1 24.4443C126.708 24.4443 127.2 24.9368 127.2 25.5443V29.4554C127.2 30.063 126.708 30.5554 126.1 30.5554C125.492 30.5554 125 30.063 125 29.4554V25.5443Z" fill="#B6F497"/>
<path d="M149.811 24.5443C149.811 23.9368 150.304 23.4443 150.911 23.4443C151.519 23.4443 152.011 23.9368 152.011 24.5443V29.4554C152.011 30.063 151.519 30.5554 150.911 30.5554C150.304 30.5554 149.811 30.063 149.811 29.4554V24.5443Z" fill="#D79D5D"/>
<path d="M128.544 23.1C128.544 22.4925 129.037 22 129.644 22C130.252 22 130.744 22.4925 130.744 23.1V31.6778C130.744 32.2853 130.252 32.7778 129.644 32.7778C129.037 32.7778 128.544 32.2853 128.544 31.6778V23.1Z" fill="#B6F497"/>
<path d="M153.356 24.3222C153.356 23.7147 153.848 23.2222 154.456 23.2222C155.063 23.2222 155.556 23.7147 155.556 24.3222V30.6777C155.556 31.2852 155.063 31.7777 154.456 31.7777C153.848 31.7777 153.356 31.2852 153.356 30.6777V24.3222Z" fill="#D79D5D"/>
<path d="M132.089 25.5443C132.089 24.9368 132.581 24.4443 133.189 24.4443C133.796 24.4443 134.289 24.9368 134.289 25.5443V29.2332C134.289 29.8407 133.796 30.3332 133.189 30.3332C132.581 30.3332 132.089 29.8407 132.089 29.2332V25.5443Z" fill="#B6F497"/>
<path d="M156.9 21.5443C156.9 20.9368 157.393 20.4443 158 20.4443C158.608 20.4443 159.1 20.9368 159.1 21.5443V32.2332C159.1 32.8407 158.608 33.3332 158 33.3332C157.393 33.3332 156.9 32.8407 156.9 32.2332V21.5443Z" fill="#D79D5D"/>
<path d="M135.633 23.1C135.633 22.4925 136.126 22 136.733 22C137.341 22 137.833 22.4925 137.833 23.1V30.9C137.833 31.5075 137.341 32 136.733 32C136.126 32 135.633 31.5075 135.633 30.9V23.1Z" fill="#B6F497"/>
<path d="M160.444 24.1C160.444 23.4925 160.937 23 161.544 23C162.152 23 162.644 23.4925 162.644 24.1V29.9C162.644 30.5075 162.152 31 161.544 31C160.937 31 160.444 30.5075 160.444 29.9V24.1Z" fill="#D79D5D"/>
<path d="M139.178 21.1C139.178 20.4925 139.67 20 140.278 20C140.885 20 141.378 20.4925 141.378 21.1V33.4556C141.378 34.0631 140.885 34.5556 140.278 34.5556C139.67 34.5556 139.178 34.0631 139.178 33.4556V21.1Z" fill="#B6F497"/>
<path d="M163.989 26.1C163.989 25.4925 164.481 25 165.089 25C165.696 25 166.189 25.4925 166.189 26.1V28.4556C166.189 29.0631 165.696 29.5556 165.089 29.5556C164.481 29.5556 163.989 29.0631 163.989 28.4556V26.1Z" fill="#D79D5D"/>
<path d="M142.722 23.5446C142.722 22.9371 143.215 22.4446 143.822 22.4446C144.43 22.4446 144.922 22.8926 144.922 23.5001V30.4112C144.922 31.0187 144.43 31.5557 143.822 31.5557C143.215 31.5557 142.722 31.0632 142.722 30.4557V23.5446Z" fill="#B6F497"/>
<path d="M146.267 21.1C146.267 20.4925 146.759 20 147.367 20C147.974 20 148.467 20.4925 148.467 21.1V32.6778C148.467 33.2853 147.974 33.7778 147.367 33.7778C146.759 33.7778 146.267 33.2853 146.267 32.6778V21.1Z" fill="#D79D5D"/>
</svg>
